<?xml version="1.0" encoding="utf-8"?>
<svg version="1.1" xmlns="http://www.w3.org/2000/svg" xmlns:xlink="http://www.w3.org/1999/xlink" x="0" y="0" viewBox="0 0 345 100" xml:space="preserve">
<style type="text/css">path { fill: #789 }</style>
<g>
	<path d="M55.1,85.6c0,0-14.5,11.8-20.3,11.8c-5.9,0-20.3-11.8-20.3-11.8H55.1z"/>
	<path d="M36.7,83.4c0,0-18.4,2.9-23.5,0C8.1,80.4,1.4,63,1.4,63L36.7,83.4z"/>
	<path d="M21.8,72.2c0,0-17.4-6.7-20.4-11.7c-2.9-5.1,0-23.5,0-23.5L21.8,72.2z"/>
	<path d="M14.5,55c0,0-11.8-14.5-11.8-20.3c0-5.9,11.8-20.3,11.8-20.3V55z"/>
	<path d="M16.8,36.5c0,0-2.9-18.4,0-23.5C19.7,7.9,37.1,1.3,37.1,1.3L16.8,36.5z"/>
	<path d="M28,21.7c0,0,6.7-17.4,11.7-20.4c5.1-2.9,23.5,0,23.5,0L28,21.7z"/>
	<path d="M45.1,14.4c0,0,14.5-11.8,20.3-11.8c5.9,0,20.3,11.8,20.3,11.8H45.1z"/>
	<path d="M110.6,16.6c0,0,18.4-2.9,23.5,0c5.1,2.9,11.7,20.3,11.7,20.3L110.6,16.6z"/>
	<path d="M78.5,27.9c0,0,17.4,6.7,20.4,11.7c2.9,5.1,0,23.5,0,23.5L78.5,27.9z"/>
	<path d="M85.7,45c0,0,11.8,14.5,11.8,20.3c0,5.9-11.8,20.3-11.8,20.3V45z"/>
	<path d="M83.5,63.5c0,0,2.9,18.4,0,23.5c-2.9,5.1-20.3,11.7-20.3,11.7L83.5,63.5z"/>
	<path d="M72.3,78.3c0,0-6.7,17.4-11.7,20.4c-5.1,2.9-23.5,0-23.5,0L72.3,78.3z"/>
	<path d="M118.3,85.7l-7.5-31.6h6.5l4.8,21.7l5.8-21.7h7.6l5.5,22l4.8-22h6.4l-7.7,31.6h-6.8l-6.3-23.6l-6.3,23.6H118.3z"/>
	<path d="M155.4,85.7V54.1h23.4v5.3h-17v7h15.8v5.3h-15.8v8.6h17.6v5.3H155.4z"/>
	<path d="M184.8,54.1h11.6c2.6,0,4.6,0.2,6,0.6c1.9,0.5,3.4,1.5,4.8,2.9c1.3,1.4,2.3,3.1,3,5.1c0.7,2,1,4.5,1,7.5c0,2.6-0.3,4.8-1,6.7c-0.8,2.3-1.9,4.2-3.4,5.6c-1.1,1.1-2.6,1.9-4.5,2.5c-1.4,0.4-3.3,0.7-5.6,0.7h-12V54.1z M191.2,59.4v20.9h4.8c1.8,0,3.1-0.1,3.9-0.3c1-0.3,1.9-0.7,2.6-1.3c0.7-0.6,1.2-1.6,1.7-3c0.4-1.4,0.6-3.3,0.6-5.8c0-2.4-0.2-4.3-0.6-5.6c-0.4-1.3-1-2.3-1.8-3.1c-0.8-0.7-1.8-1.2-2.9-1.5c-0.9-0.2-2.6-0.3-5.2-0.3H191.2z"/>
	<path d="M216.7,85.7V54.1h6.2l12.9,21.1V54.1h5.9v31.6h-6.4l-12.7-20.6v20.6H216.7z"/>
	<path d="M248.5,85.7v-6.1h6.1v6.1H248.5z"/>
	<path d="M260.8,85.7V54.1h6.2L280,75.2V54.1h5.9v31.6h-6.4l-12.7-20.6v20.6H260.8z"/>
	<path d="M292.6,85.7V54.1H316v5.3h-17v7h15.8v5.3H299v8.6h17.6v5.3H292.6z"/>
	<path d="M329.1,85.7V59.4h-9.4v-5.3h25.1v5.3h-9.3v26.2H329.1z"/>
</g>
</svg>
