<svg xmlns="http://www.w3.org/2000/svg" viewBox="0 0 120 42"><style>.background{fill:#f4f5f7}.icon circle,.text{fill:#fff}</style><path class="background" d="M3.4.5l113.4.2c1.6 0 3-.2 3 3.2l-.1 37.3H.5V3.7C.5 2 .7.5 3.4.5z"/><path class="border" d="M117.8 0H2.2C1 0 0 1 0 2.2v39.2c0 .4.2.6.5.6h119c.3 0 .5-.2.5-.5V2.2c0-1.2-1-2.2-2.2-2.2zM2.2 1h115.5c.7 0 1.2.6 1.2 1.2v27.2H36.4c-3 5.5-8.9 9.2-15.5 9.2-6.7 0-12.5-3.7-15.5-9.2H1V2.2C1 1.6 1.6 1 2.2 1z"/><path class="text" d="M61 32.7c.3 0 .6 0 .9.1.3.1.5.1.7.3.2.1.3.3.4.5.1.2.2.5.2.8s-.1.6-.2.8c-.2.2-.4.4-.7.5.4.1.7.3.9.6s.3.6.3 1.1c0 .3-.1.6-.2.9-.1.2-.3.4-.5.6-.2.2-.5.3-.8.3-.3.1-.6.1-.9.1h-3.2v-6.6H61zm-.2 2.7c.3 0 .5-.1.6-.2.2-.1.3-.3.3-.6 0-.2 0-.3-.1-.4-.1-.1-.1-.2-.2-.2-.1-.1-.2-.1-.3-.1h-1.8v1.5h1.5zm.1 2.8h.4c.1 0 .2-.1.3-.1.1-.1.2-.2.2-.3.1-.1.1-.3.1-.4 0-.3-.1-.6-.3-.7-.2-.1-.4-.2-.8-.2h-1.6v1.8l1.7-.1zm2.8-5.5h1.6l1.6 2.6 1.5-2.6H70l-2.5 4.1v2.5H66v-2.6l-2.3-4zm23.6 5c.1.2.2.3.3.4.1.1.3.2.5.2s.4.1.6.1h.4c.1 0 .3-.1.4-.1.1-.1.2-.1.3-.3.1-.1.1-.2.1-.4s-.1-.3-.2-.4c-.1-.1-.3-.2-.4-.3-.2-.1-.4-.1-.6-.2-.2-.1-.5-.1-.7-.2-.2-.1-.5-.1-.7-.2l-.6-.3c-.2-.1-.3-.3-.4-.5-.3-.4-.3-.6-.3-.9 0-.3.1-.6.2-.9.1-.3.3-.5.6-.6.2-.2.5-.3.8-.4.3-.1.6-.1.9-.1s.7 0 1 .1.6.2.8.4c.2.2.4.4.6.7.1.3.2.6.2 1h-1.4c0-.2-.1-.4-.1-.5l-.3-.3c-.1-.1-.3-.1-.4-.2H88c-.1 0-.2.1-.3.1-.1.1-.2.1-.2.2-.1.1-.1.2-.1.4 0 .1 0 .2.1.3 0 .1.1.2.3.2.1.1.3.1.6.2s.6.2 1 .3c.1 0 .3.1.5.1.2.1.4.2.7.3.2.1.4.3.6.6.2.2.2.5.2.9 0 .3-.1.6-.2.8-.1.3-.3.5-.5.7s-.5.3-.9.4c-.3.1-.7.2-1.2.2-.4 0-.7 0-1.1-.1-.3-.1-.6-.2-.9-.4s-.5-.4-.6-.7c-.2-.3-.2-.6-.2-1.1h1.4c-.1.2 0 .4.1.5zm8.2-5l2.5 6.6h-1.5l-.5-1.5h-2.5l-.5 1.5h-1.5l2.5-6.6h1.5zm.1 4.1l-.8-2.4-.9 2.4h1.7z"/><g class="icon"><circle cx="92.3" cy="15.03" r="11.6"/><path d="M87.078 13.346c.438-2.931 2.501-4.491 5.065-4.491 3.689 0 5.941 2.682 5.941 6.237 0 3.492-2.376 6.174-6.003 6.174-2.501 0-4.69-1.497-5.128-4.552h2.939c.063 1.559 1.126 2.121 2.564 2.121 1.626 0 2.751-1.497 2.751-3.867 0-2.432-.938-3.742-2.689-3.742-1.251 0-2.376.437-2.626 2.058h.876l-2.314 2.307-2.314-2.307.938.062zm5.191-9.916c-3.189 0-5.941 1.122-8.129 3.368-2.314 2.307-3.44 5.051-3.44 8.232s1.126 5.863 3.439 8.17c2.314 2.245 5.003 3.43 8.129 3.43 3.189 0 5.941-1.123 8.317-3.43 2.189-2.183 3.314-4.864 3.314-8.108s-1.126-5.987-3.377-8.232c-2.25-2.369-5.001-3.43-8.253-3.43zm0 2.058c2.626 0 4.877.936 6.691 2.806 1.876 1.809 2.814 4.054 2.814 6.736 0 2.682-.938 4.864-2.751 6.611-1.939 1.871-4.19 2.806-6.754 2.806s-4.815-.936-6.691-2.806c-1.876-1.871-2.814-4.116-2.814-6.673s.938-4.802 2.877-6.736c1.75-1.808 4.001-2.744 6.628-2.744z"/></g><g class="icon"><circle cx="63.3" cy="15.03" r="11.6"/><path d="M66.5 12.13c0-.4-.3-.7-.7-.7H61c-.4 0-.7.3-.7.7v4.7h1.3v5.6h3.6v-5.6h1.3v-4.7zm-3.2-4.6c.9 0 1.6.7 1.6 1.6s-.7 1.6-1.6 1.6-1.6-.7-1.6-1.6.7-1.6 1.6-1.6zm0-4.1c-3.2 0-5.9 1.1-8.2 3.4s-3.4 5.1-3.4 8.2c0 3.2 1.1 5.9 3.4 8.2 2.3 2.3 5 3.4 8.2 3.4s6-1.1 8.3-3.4c2.2-2.2 3.3-4.9 3.3-8.1s-1.1-6-3.4-8.2c-2.2-2.4-4.9-3.5-8.2-3.5zm.1 2.1c2.6 0 4.9.9 6.7 2.8 1.9 1.8 2.8 4.1 2.8 6.7 0 2.7-.9 4.9-2.7 6.6-1.9 1.9-4.2 2.8-6.8 2.8-2.6 0-4.8-.9-6.7-2.8s-2.8-4.1-2.8-6.7.9-4.8 2.8-6.7c1.8-1.8 4-2.7 6.7-2.7z"/></g><g class="icon"><circle cx="21" cy="19" r="15.75"/><path d="M32.174 7.825c3.08 3.08 4.575 6.775 4.575 11.175s-1.496 8.095-4.487 11.087C29.094 33.254 25.311 34.75 21 34.75s-8.007-1.584-11.086-4.663S5.25 23.311 5.25 19s1.584-8.007 4.663-11.175C12.905 4.746 16.6 3.25 21 3.25s8.182 1.496 11.174 4.575zM11.937 9.849C9.385 12.489 8.066 15.48 8.066 19c0 3.424 1.166 6.349 3.579 8.855 2.237 2.323 5.288 3.778 8.508 3.967 3.874.227 7.244-1.092 9.998-3.846 2.464-2.376 3.695-5.367 3.695-9.063 0-3.608-1.232-6.687-3.783-9.151-2.552-2.552-5.543-3.784-9.151-3.784-3.432.088-6.423 1.319-8.975 3.871zm6.863 7.655c-.352-.88-.968-1.32-1.76-1.32-1.408 0-2.112.968-2.112 2.816 0 1.848.704 2.816 2.112 2.816.88 0 1.584-.44 1.936-1.408l1.936 1.056c-.88 1.672-2.288 2.464-4.135 2.464-1.408 0-2.552-.44-3.431-1.32s-1.32-2.024-1.32-3.608c0-1.496.44-2.728 1.32-3.608s1.936-1.32 3.255-1.32c1.936 0 3.343.792 4.135 2.288L18.8 17.504zm8.975 0c-.352-.88-.968-1.32-1.76-1.32-1.408 0-2.112.968-2.112 2.816 0 1.848.704 2.816 2.112 2.816.88 0 1.584-.44 1.936-1.408l1.936 1.056c-.88 1.672-2.288 2.464-4.135 2.464-1.408 0-2.552-.44-3.431-1.32C21.439 21.728 21 20.584 21 19c0-1.496.44-2.728 1.32-3.608s1.936-1.32 3.343-1.32c1.936 0 3.343.792 4.135 2.288l-2.023 1.144z"/></g></svg>