<svg xmlns="http://www.w3.org/2000/svg" viewBox="0 0 345 100"><style>path{fill:#789}</style><path d="M55.1 85.6S40.6 97.4 34.8 97.4c-5.9 0-20.3-11.8-20.3-11.8h40.6zm-18.4-2.2s-18.4 2.9-23.5 0C8.1 80.4 1.4 63 1.4 63l35.3 20.4zM21.8 72.2S4.4 65.5 1.4 60.5c-2.9-5.1 0-23.5 0-23.5l20.4 35.2zM14.5 55S2.7 40.5 2.7 34.7c0-5.9 11.8-20.3 11.8-20.3V55zm2.3-18.5s-2.9-18.4 0-23.5C19.7 7.9 37.1 1.3 37.1 1.3L16.8 36.5zM28 21.7S34.7 4.3 39.7 1.3c5.1-2.9 23.5 0 23.5 0L28 21.7zm17.1-7.3S59.6 2.6 65.4 2.6c5.9 0 20.3 11.8 20.3 11.8H45.1zm65.5 2.2s18.4-2.9 23.5 0c5.1 2.9 11.7 20.3 11.7 20.3l-35.2-20.3zM78.5 27.9s17.4 6.7 20.4 11.7c2.9 5.1 0 23.5 0 23.5L78.5 27.9zM85.7 45s11.8 14.5 11.8 20.3c0 5.9-11.8 20.3-11.8 20.3V45zm-2.2 18.5s2.9 18.4 0 23.5c-2.9 5.1-20.3 11.7-20.3 11.7l20.3-35.2zM72.3 78.3s-6.7 17.4-11.7 20.4c-5.1 2.9-23.5 0-23.5 0l35.2-20.4zm46 7.4l-7.5-31.6h6.5l4.8 21.7 5.8-21.7h7.6l5.5 22 4.8-22h6.4l-7.7 31.6h-6.8l-6.3-23.6-6.3 23.6h-6.8zm37.1 0V54.1h23.4v5.3h-17v7h15.8v5.3h-15.8v8.6h17.6v5.3h-24zm29.4-31.6h11.6c2.6 0 4.6.2 6 .6 1.9.5 3.4 1.5 4.8 2.9 1.3 1.4 2.3 3.1 3 5.1.7 2 1 4.5 1 7.5 0 2.6-.3 4.8-1 6.7-.8 2.3-1.9 4.2-3.4 5.6-1.1 1.1-2.6 1.9-4.5 2.5-1.4.4-3.3.7-5.6.7h-12V54.1zm6.4 5.3v20.9h4.8c1.8 0 3.1-.1 3.9-.3 1-.3 1.9-.7 2.6-1.3.7-.6 1.2-1.6 1.7-3 .4-1.4.6-3.3.6-5.8 0-2.4-.2-4.3-.6-5.6-.4-1.3-1-2.3-1.8-3.1-.8-.7-1.8-1.2-2.9-1.5-.9-.2-2.6-.3-5.2-.3h-3.1zm25.5 26.3V54.1h6.2l12.9 21.1V54.1h5.9v31.6h-6.4l-12.7-20.6v20.6h-5.9zm31.8 0v-6.1h6.1v6.1h-6.1zm12.3 0V54.1h6.2l13 21.1V54.1h5.9v31.6h-6.4l-12.7-20.6v20.6h-6zm31.8 0V54.1H316v5.3h-17v7h15.8v5.3H299v8.6h17.6v5.3h-24zm36.5 0V59.4h-9.4v-5.3h25.1v5.3h-9.3v26.2h-6.4z"/></svg>